G04*
G04 #@! TF.GenerationSoftware,Altium Limited,Altium Designer,24.5.2 (23)*
G04*
G04 Layer_Physical_Order=1*
G04 Layer_Color=255*
%FSLAX44Y44*%
%MOMM*%
G71*
G04*
G04 #@! TF.SameCoordinates,FF7F0701-0BDD-48FF-8A56-710F3804CBA9*
G04*
G04*
G04 #@! TF.FilePolarity,Positive*
G04*
G01*
G75*
%ADD13R,1.2200X1.2200*%
%ADD14C,1.2200*%
%ADD15C,1.2700*%
G36*
X100000Y864392D02*
X1270000D01*
X1272271Y863742D01*
X1273153Y863153D01*
X1273742Y862271D01*
X1274392Y860000D01*
X1274422Y859849D01*
X1274422Y857460D01*
X1274426Y782465D01*
X1274461Y782290D01*
X1274409Y781231D01*
X1274876Y771738D01*
X1276270Y762336D01*
X1278580Y753116D01*
X1281782Y744167D01*
X1285845Y735575D01*
X1290732Y727423D01*
X1296393Y719789D01*
X1302776Y712746D01*
X1309819Y706364D01*
X1317453Y700702D01*
X1325605Y695815D01*
X1334197Y691752D01*
X1343146Y688550D01*
X1352366Y686240D01*
X1361768Y684846D01*
X1364392Y684717D01*
Y461608D01*
X1355000D01*
X1355000Y461608D01*
Y461608D01*
X1354785Y461565D01*
X1350842Y461255D01*
X1346786Y460281D01*
X1342932Y458685D01*
X1339375Y456505D01*
X1336204Y453796D01*
X1333495Y450625D01*
X1331315Y447068D01*
X1329719Y443214D01*
X1328745Y439158D01*
X1328418Y435000D01*
X1328745Y430842D01*
X1329719Y426786D01*
X1331315Y422932D01*
X1333495Y419375D01*
X1336204Y416204D01*
X1339375Y413495D01*
X1342932Y411315D01*
X1346786Y409719D01*
X1350842Y408745D01*
X1354785Y408435D01*
X1355000Y408392D01*
X1364392D01*
Y185287D01*
X1361771Y185159D01*
X1352368Y183764D01*
X1343148Y181454D01*
X1334198Y178252D01*
X1325605Y174188D01*
X1317453Y169301D01*
X1309818Y163639D01*
X1302775Y157255D01*
X1296391Y150212D01*
X1290729Y142578D01*
X1285842Y134424D01*
X1281778Y125832D01*
X1278576Y116882D01*
X1276266Y107662D01*
X1274871Y98259D01*
X1274405Y88765D01*
X1274457Y87705D01*
X1274422Y87530D01*
Y10151D01*
X1274392Y10000D01*
X1274392Y10000D01*
X1273742Y7729D01*
X1273153Y6847D01*
X1271706Y5881D01*
X1270167Y5574D01*
X1270000Y5608D01*
X100000D01*
X99833Y5574D01*
X98294Y5881D01*
X96847Y6847D01*
X96258Y7729D01*
X95608Y10000D01*
X95578Y12528D01*
Y87530D01*
X95543Y87705D01*
X95595Y88765D01*
X95129Y98259D01*
X93734Y107662D01*
X91424Y116882D01*
X88222Y125832D01*
X84158Y134424D01*
X79271Y142578D01*
X73609Y150212D01*
X67225Y157255D01*
X60182Y163639D01*
X52547Y169301D01*
X44394Y174188D01*
X35802Y178252D01*
X26852Y181454D01*
X17631Y183764D01*
X8229Y185159D01*
X5608Y185287D01*
Y408392D01*
X15000D01*
X15000Y408392D01*
Y408392D01*
X15215Y408435D01*
X19158Y408745D01*
X23214Y409719D01*
X27068Y411315D01*
X30624Y413495D01*
X33796Y416204D01*
X36505Y419375D01*
X38685Y422932D01*
X40281Y426786D01*
X41255Y430842D01*
X41582Y435000D01*
X41255Y439158D01*
X40281Y443214D01*
X38685Y447068D01*
X36505Y450625D01*
X33796Y453796D01*
X30624Y456505D01*
X27068Y458685D01*
X23214Y460281D01*
X19158Y461255D01*
X15215Y461565D01*
X15000Y461608D01*
X5578D01*
Y684711D01*
X8229Y684841D01*
X17631Y686236D01*
X26852Y688546D01*
X35802Y691748D01*
X44394Y695812D01*
X52547Y700699D01*
X60182Y706361D01*
X67225Y712745D01*
X73609Y719788D01*
X79271Y727422D01*
X84158Y735575D01*
X88222Y744168D01*
X91424Y753118D01*
X93734Y762339D01*
X95129Y771741D01*
X95595Y781235D01*
X95543Y782295D01*
X95578Y782470D01*
Y859849D01*
X95608Y860000D01*
X95608Y860000D01*
X96258Y862271D01*
X96847Y863153D01*
X98294Y864119D01*
X99833Y864426D01*
X100000Y864392D01*
D02*
G37*
%LPC*%
G36*
X343770Y381363D02*
Y373770D01*
X351363D01*
X350784Y375931D01*
X349614Y377959D01*
X347959Y379614D01*
X345931Y380784D01*
X343770Y381363D01*
D02*
G37*
G36*
X341230D02*
X339069Y380784D01*
X337041Y379614D01*
X335386Y377959D01*
X334216Y375931D01*
X333637Y373770D01*
X341230D01*
Y381363D01*
D02*
G37*
G36*
X351363Y371230D02*
X343770D01*
Y363637D01*
X345931Y364216D01*
X347959Y365386D01*
X349614Y367041D01*
X350784Y369069D01*
X351363Y371230D01*
D02*
G37*
G36*
X341230D02*
X333637D01*
X334216Y369069D01*
X335386Y367041D01*
X337041Y365386D01*
X339069Y364216D01*
X341230Y363637D01*
Y371230D01*
D02*
G37*
G36*
X88604Y185230D02*
X81270D01*
Y177896D01*
X83335Y178449D01*
X85305Y179586D01*
X86914Y181195D01*
X88051Y183165D01*
X88604Y185230D01*
D02*
G37*
G36*
X78730D02*
X71396D01*
X71949Y183165D01*
X73086Y181195D01*
X74695Y179586D01*
X76665Y178449D01*
X78730Y177896D01*
Y185230D01*
D02*
G37*
G36*
X667500Y580086D02*
X517530D01*
X514920Y579743D01*
X512487Y578735D01*
X510398Y577132D01*
X508795Y575043D01*
X507787Y572611D01*
X507444Y570000D01*
Y489600D01*
X483900D01*
Y457400D01*
X484087D01*
X485374Y454860D01*
X484519Y452796D01*
X483900Y449686D01*
Y446514D01*
X484519Y443404D01*
X485732Y440474D01*
X487494Y437837D01*
X488201Y437131D01*
X489582Y435400D01*
X488201Y433670D01*
X487494Y432963D01*
X485732Y430326D01*
X484519Y427396D01*
X483900Y424286D01*
Y421114D01*
X484519Y418004D01*
X485732Y415074D01*
X487494Y412437D01*
X488201Y411730D01*
X489582Y410000D01*
X488201Y408270D01*
X487494Y407563D01*
X485732Y404926D01*
X484519Y401996D01*
X483900Y398886D01*
Y395714D01*
X484519Y392604D01*
X485732Y389674D01*
X487494Y387037D01*
X488201Y386330D01*
X489582Y384600D01*
X488201Y382869D01*
X487494Y382163D01*
X485732Y379526D01*
X484519Y376596D01*
X483900Y373486D01*
Y370314D01*
X484519Y367204D01*
X485732Y364274D01*
X487494Y361637D01*
X488201Y360930D01*
X489582Y359200D01*
X488201Y357469D01*
X487494Y356763D01*
X485732Y354126D01*
X484519Y351196D01*
X483900Y348086D01*
Y344914D01*
X484519Y341804D01*
X485732Y338874D01*
X487494Y336237D01*
X489737Y333994D01*
X492374Y332232D01*
X492597Y332140D01*
X492091Y329600D01*
X483900D01*
Y297400D01*
X484087D01*
X485374Y294860D01*
X484519Y292796D01*
X483900Y289686D01*
Y286514D01*
X484519Y283404D01*
X485732Y280474D01*
X487494Y277837D01*
X488201Y277131D01*
X489582Y275400D01*
X488201Y273669D01*
X487494Y272963D01*
X485732Y270326D01*
X484519Y267396D01*
X483900Y264286D01*
Y261114D01*
X484519Y258004D01*
X485732Y255074D01*
X487494Y252437D01*
X488201Y251730D01*
X489582Y250000D01*
X488201Y248270D01*
X487494Y247563D01*
X485732Y244926D01*
X484519Y241996D01*
X483900Y238886D01*
Y235714D01*
X484519Y232604D01*
X485732Y229674D01*
X487494Y227037D01*
X488201Y226331D01*
X489582Y224600D01*
X488201Y222869D01*
X487494Y222163D01*
X485732Y219526D01*
X484519Y216596D01*
X483900Y213486D01*
Y210314D01*
X484519Y207204D01*
X485732Y204274D01*
X487494Y201637D01*
X488201Y200931D01*
X489582Y199200D01*
X488201Y197470D01*
X487494Y196763D01*
X485732Y194126D01*
X484519Y191196D01*
X483900Y188086D01*
Y184914D01*
X484519Y181804D01*
X485732Y178874D01*
X487494Y176237D01*
X489737Y173994D01*
X492374Y172232D01*
X495304Y171019D01*
X498414Y170400D01*
X501586D01*
X504696Y171019D01*
X507626Y172232D01*
X510263Y173994D01*
X512506Y176237D01*
X514268Y178874D01*
X515481Y181804D01*
X516100Y184914D01*
Y188086D01*
X515481Y191196D01*
X514268Y194126D01*
X512506Y196763D01*
X511799Y197470D01*
X510418Y199200D01*
X511799Y200931D01*
X512506Y201637D01*
X514268Y204274D01*
X515481Y207204D01*
X516100Y210314D01*
Y213486D01*
X515481Y216596D01*
X514268Y219526D01*
X512506Y222163D01*
X511799Y222869D01*
X510418Y224600D01*
X511799Y226331D01*
X512506Y227037D01*
X514268Y229674D01*
X515481Y232604D01*
X516100Y235714D01*
Y238886D01*
X515481Y241996D01*
X514268Y244926D01*
X512506Y247563D01*
X511799Y248270D01*
X510418Y250000D01*
X511799Y251730D01*
X512506Y252437D01*
X514268Y255074D01*
X515481Y258004D01*
X516100Y261114D01*
Y264286D01*
X515481Y267396D01*
X514268Y270326D01*
X512506Y272963D01*
X511799Y273669D01*
X510418Y275400D01*
X511799Y277131D01*
X512506Y277837D01*
X514268Y280474D01*
X515481Y283404D01*
X516100Y286514D01*
Y289686D01*
X515481Y292796D01*
X514627Y294860D01*
X515913Y297400D01*
X516100D01*
Y329600D01*
X507909D01*
X507403Y332140D01*
X507626Y332232D01*
X510263Y333994D01*
X512506Y336237D01*
X514268Y338874D01*
X515481Y341804D01*
X516100Y344914D01*
Y348086D01*
X515481Y351196D01*
X514268Y354126D01*
X512506Y356763D01*
X511799Y357469D01*
X510418Y359200D01*
X511799Y360930D01*
X512506Y361637D01*
X514268Y364274D01*
X515481Y367204D01*
X516100Y370314D01*
Y373486D01*
X515481Y376596D01*
X514268Y379526D01*
X512506Y382163D01*
X511799Y382869D01*
X510418Y384600D01*
X511799Y386330D01*
X512506Y387037D01*
X514268Y389674D01*
X515481Y392604D01*
X516100Y395714D01*
Y398886D01*
X515481Y401996D01*
X514268Y404926D01*
X512506Y407563D01*
X511799Y408270D01*
X510418Y410000D01*
X511799Y411730D01*
X512506Y412437D01*
X514268Y415074D01*
X515481Y418004D01*
X516100Y421114D01*
Y424286D01*
X515481Y427396D01*
X514268Y430326D01*
X512506Y432963D01*
X511799Y433670D01*
X510418Y435400D01*
X511799Y437131D01*
X512506Y437837D01*
X514268Y440474D01*
X515481Y443404D01*
X516100Y446514D01*
Y449686D01*
X515481Y452796D01*
X514627Y454860D01*
X515913Y457400D01*
X516100D01*
Y458660D01*
X517530Y459914D01*
X667500D01*
X670110Y460257D01*
X672543Y461265D01*
X674632Y462868D01*
X676235Y464957D01*
X677243Y467389D01*
X677586Y470000D01*
Y570000D01*
X677243Y572611D01*
X676235Y575043D01*
X674632Y577132D01*
X672543Y578735D01*
X670110Y579743D01*
X667500Y580086D01*
D02*
G37*
G36*
X126100Y489600D02*
X63900D01*
Y457400D01*
X64088D01*
X65374Y454860D01*
X64519Y452796D01*
X63900Y449686D01*
Y446514D01*
X64519Y443404D01*
X65732Y440474D01*
X67494Y437837D01*
X68201Y437131D01*
X69582Y435400D01*
X68201Y433670D01*
X67494Y432963D01*
X65732Y430326D01*
X64519Y427396D01*
X63900Y424286D01*
Y421114D01*
X64519Y418004D01*
X65732Y415074D01*
X67494Y412437D01*
X68201Y411730D01*
X69582Y410000D01*
X68201Y408270D01*
X67494Y407563D01*
X65732Y404926D01*
X64519Y401996D01*
X63900Y398886D01*
Y395714D01*
X64519Y392604D01*
X65732Y389674D01*
X67494Y387037D01*
X68201Y386330D01*
X69582Y384600D01*
X68201Y382869D01*
X67494Y382163D01*
X65732Y379526D01*
X64519Y376596D01*
X63900Y373486D01*
Y370314D01*
X64519Y367204D01*
X65732Y364274D01*
X67494Y361637D01*
X68201Y360930D01*
X69582Y359200D01*
X68201Y357469D01*
X67494Y356763D01*
X65732Y354126D01*
X64519Y351196D01*
X63900Y348086D01*
Y344914D01*
X64519Y341804D01*
X65732Y338874D01*
X67494Y336237D01*
X69737Y333994D01*
X72374Y332232D01*
X72597Y332140D01*
X72091Y329600D01*
X63900D01*
Y297400D01*
X64088D01*
X65374Y294860D01*
X64519Y292796D01*
X63900Y289686D01*
Y286514D01*
X64519Y283404D01*
X65732Y280474D01*
X67494Y277837D01*
X68201Y277131D01*
X69582Y275400D01*
X68201Y273669D01*
X67494Y272963D01*
X65732Y270326D01*
X64519Y267396D01*
X63900Y264286D01*
Y261114D01*
X64519Y258004D01*
X65732Y255074D01*
X67494Y252437D01*
X68201Y251730D01*
X69582Y250000D01*
X68201Y248270D01*
X67494Y247563D01*
X65732Y244926D01*
X64519Y241996D01*
X63900Y238886D01*
Y235714D01*
X64519Y232604D01*
X65732Y229674D01*
X67494Y227037D01*
X68201Y226331D01*
X69582Y224600D01*
X68201Y222869D01*
X67494Y222163D01*
X65732Y219526D01*
X64519Y216596D01*
X63900Y213486D01*
Y210314D01*
X64519Y207204D01*
X65732Y204274D01*
X67494Y201637D01*
X69737Y199394D01*
X72374Y197632D01*
X75022Y196535D01*
X75329Y195604D01*
X75386Y193813D01*
X74695Y193414D01*
X73086Y191805D01*
X71949Y189835D01*
X71396Y187770D01*
X80000D01*
X88604D01*
X88051Y189835D01*
X86914Y191805D01*
X85305Y193414D01*
X84614Y193813D01*
X84670Y195604D01*
X84978Y196535D01*
X87626Y197632D01*
X90263Y199394D01*
X92506Y201637D01*
X93525Y203162D01*
X93607Y203204D01*
X96393D01*
X96475Y203162D01*
X97494Y201637D01*
X98201Y200931D01*
X99582Y199200D01*
X98201Y197470D01*
X97494Y196763D01*
X95732Y194126D01*
X94519Y191196D01*
X93900Y188086D01*
Y184914D01*
X94519Y181804D01*
X95732Y178874D01*
X97494Y176237D01*
X99737Y173994D01*
X102374Y172232D01*
X105304Y171019D01*
X108414Y170400D01*
X111586D01*
X114696Y171019D01*
X117626Y172232D01*
X120263Y173994D01*
X122506Y176237D01*
X124268Y178874D01*
X125481Y181804D01*
X126100Y184914D01*
Y188086D01*
X125481Y191196D01*
X124268Y194126D01*
X122506Y196763D01*
X121799Y197470D01*
X120418Y199200D01*
X121799Y200931D01*
X122506Y201637D01*
X124268Y204274D01*
X125481Y207204D01*
X126100Y210314D01*
Y213486D01*
X125481Y216596D01*
X124268Y219526D01*
X122506Y222163D01*
X121799Y222869D01*
X120418Y224600D01*
X121799Y226331D01*
X122506Y227037D01*
X124268Y229674D01*
X125481Y232604D01*
X126100Y235714D01*
Y238886D01*
X125481Y241996D01*
X124268Y244926D01*
X122506Y247563D01*
X121799Y248270D01*
X120418Y250000D01*
X121799Y251730D01*
X122506Y252437D01*
X124268Y255074D01*
X125481Y258004D01*
X126100Y261114D01*
Y264286D01*
X125481Y267396D01*
X124268Y270326D01*
X122506Y272963D01*
X121799Y273669D01*
X120418Y275400D01*
X121799Y277131D01*
X122506Y277837D01*
X124268Y280474D01*
X125481Y283404D01*
X126100Y286514D01*
Y289686D01*
X125481Y292796D01*
X124626Y294860D01*
X125913Y297400D01*
X126100D01*
Y329600D01*
X117908D01*
X117403Y332140D01*
X117626Y332232D01*
X120263Y333994D01*
X122506Y336237D01*
X124268Y338874D01*
X125481Y341804D01*
X126100Y344914D01*
Y348086D01*
X125481Y351196D01*
X124268Y354126D01*
X122506Y356763D01*
X121799Y357469D01*
X120418Y359200D01*
X121799Y360930D01*
X122506Y361637D01*
X124268Y364274D01*
X125481Y367204D01*
X126100Y370314D01*
Y373486D01*
X125481Y376596D01*
X124268Y379526D01*
X122506Y382163D01*
X121799Y382869D01*
X120418Y384600D01*
X121799Y386330D01*
X122506Y387037D01*
X124268Y389674D01*
X125481Y392604D01*
X126100Y395714D01*
Y398886D01*
X125481Y401996D01*
X124268Y404926D01*
X122506Y407563D01*
X121799Y408270D01*
X120418Y410000D01*
X121799Y411730D01*
X122506Y412437D01*
X124268Y415074D01*
X125481Y418004D01*
X126100Y421114D01*
Y424286D01*
X125481Y427396D01*
X124268Y430326D01*
X122506Y432963D01*
X121799Y433670D01*
X120418Y435400D01*
X121799Y437131D01*
X122506Y437837D01*
X124268Y440474D01*
X125481Y443404D01*
X126100Y446514D01*
Y449686D01*
X125481Y452796D01*
X124626Y454860D01*
X125913Y457400D01*
X126100D01*
Y489600D01*
D02*
G37*
%LPD*%
D13*
X80000Y313500D02*
D03*
X110000Y473500D02*
D03*
Y313500D02*
D03*
X80000Y473500D02*
D03*
X500000Y313500D02*
D03*
Y473500D02*
D03*
D14*
X80000Y288100D02*
D03*
Y262700D02*
D03*
Y237300D02*
D03*
Y211900D02*
D03*
Y186500D02*
D03*
X110000Y448100D02*
D03*
Y422700D02*
D03*
Y397300D02*
D03*
Y371900D02*
D03*
Y346500D02*
D03*
Y288100D02*
D03*
Y262700D02*
D03*
Y237300D02*
D03*
Y211900D02*
D03*
Y186500D02*
D03*
X80000Y448100D02*
D03*
Y422700D02*
D03*
Y397300D02*
D03*
Y371900D02*
D03*
Y346500D02*
D03*
X500000Y186500D02*
D03*
Y211900D02*
D03*
Y237300D02*
D03*
Y262700D02*
D03*
Y288100D02*
D03*
Y346500D02*
D03*
Y371900D02*
D03*
Y397300D02*
D03*
Y422700D02*
D03*
Y448100D02*
D03*
D15*
X342500Y372500D02*
D03*
M02*
