G04*
G04 #@! TF.GenerationSoftware,Altium Limited,Altium Designer,24.5.2 (23)*
G04*
G04 Layer_Color=32896*
%FSLAX44Y44*%
%MOMM*%
G71*
G04*
G04 #@! TF.SameCoordinates,FF7F0701-0BDD-48FF-8A56-710F3804CBA9*
G04*
G04*
G04 #@! TF.FilePolarity,Positive*
G04*
G01*
G75*
%ADD16C,0.1270*%
%ADD17C,0.0500*%
%ADD18C,0.1780*%
D16*
X67300Y173800D02*
X92700D01*
X67300Y326200D02*
X92700D01*
Y173800D02*
Y326200D01*
X67300Y173800D02*
Y326200D01*
X97300Y333800D02*
X122700D01*
X97300Y486200D02*
X122700D01*
Y333800D02*
Y486200D01*
X97300Y333800D02*
Y486200D01*
Y173800D02*
X122700D01*
X97300Y326200D02*
X122700D01*
X97300Y173800D02*
Y326200D01*
X122700Y173800D02*
Y326200D01*
X67300Y333800D02*
X92700D01*
X67300Y486200D02*
X92700D01*
Y333800D02*
Y486200D01*
X67300Y333800D02*
Y486200D01*
X487300Y173800D02*
Y326200D01*
X512700Y173800D02*
Y326200D01*
X487300D02*
X512700D01*
X487300Y173800D02*
X512700D01*
X487300Y333800D02*
Y486200D01*
X512700Y333800D02*
Y486200D01*
X487300D02*
X512700D01*
X487300Y333800D02*
X512700D01*
D17*
X67674Y322686D02*
Y323297D01*
X70280Y325902D01*
X69925D02*
X70280D01*
X67738Y323715D02*
X69925Y325902D01*
X67738Y323715D02*
Y324133D01*
X69347Y325742D01*
X69056D02*
X69347D01*
X67641Y324327D02*
X69056Y325742D01*
X67641Y324327D02*
Y324712D01*
X68735Y325806D01*
X68285D02*
X68735D01*
X67578Y325099D02*
X68285Y325806D01*
X97674Y482686D02*
Y483297D01*
X100280Y485902D01*
X99925D02*
X100280D01*
X97738Y483715D02*
X99925Y485902D01*
X97738Y483715D02*
Y484133D01*
X99347Y485742D01*
X99056D02*
X99347D01*
X97641Y484327D02*
X99056Y485742D01*
X97641Y484327D02*
Y484712D01*
X98735Y485806D01*
X98285D02*
X98735D01*
X97578Y485099D02*
X98285Y485806D01*
X122326Y322686D02*
Y323297D01*
X119720Y325902D02*
X122326Y323297D01*
X119720Y325902D02*
X120075D01*
X122262Y323715D01*
Y324133D01*
X120653Y325742D02*
X122262Y324133D01*
X120653Y325742D02*
X120943D01*
X122359Y324327D01*
Y324712D01*
X121265Y325806D02*
X122359Y324712D01*
X121265Y325806D02*
X121715D01*
X122422Y325099D01*
X67674Y482686D02*
Y483297D01*
X70280Y485902D01*
X69925D02*
X70280D01*
X67738Y483715D02*
X69925Y485902D01*
X67738Y483715D02*
Y484133D01*
X69347Y485742D01*
X69056D02*
X69347D01*
X67641Y484327D02*
X69056Y485742D01*
X67641Y484327D02*
Y484712D01*
X68735Y485806D01*
X68285D02*
X68735D01*
X67578Y485099D02*
X68285Y485806D01*
X487578Y325099D02*
X488285Y325806D01*
X488735D01*
X487641Y324712D02*
X488735Y325806D01*
X487641Y324327D02*
Y324712D01*
Y324327D02*
X489057Y325742D01*
X489347D01*
X487738Y324133D02*
X489347Y325742D01*
X487738Y323715D02*
Y324133D01*
Y323715D02*
X489925Y325902D01*
X490280D01*
X487674Y323297D02*
X490280Y325902D01*
X487674Y322686D02*
Y323297D01*
X487578Y485099D02*
X488285Y485806D01*
X488735D01*
X487641Y484712D02*
X488735Y485806D01*
X487641Y484327D02*
Y484712D01*
Y484327D02*
X489057Y485742D01*
X489347D01*
X487738Y484133D02*
X489347Y485742D01*
X487738Y483715D02*
Y484133D01*
Y483715D02*
X489925Y485902D01*
X490280D01*
X487674Y483297D02*
X490280Y485902D01*
X487674Y482686D02*
Y483297D01*
D18*
X506352Y341381D02*
X508891D01*
X507621D01*
Y335033D01*
X508891Y333764D01*
X510160D01*
X511430Y335033D01*
X498734Y341381D02*
X501273Y340112D01*
X503812Y337573D01*
Y335033D01*
X502543Y333764D01*
X500004D01*
X498734Y335033D01*
Y336303D01*
X500004Y337573D01*
X503812D01*
X506352Y501401D02*
X508891D01*
X507621D01*
Y495053D01*
X508891Y493784D01*
X510160D01*
X511430Y495053D01*
X498734Y501401D02*
X503812D01*
Y497593D01*
X501273Y498862D01*
X500004D01*
X498734Y497593D01*
Y495053D01*
X500004Y493784D01*
X502543D01*
X503812Y495053D01*
X113730Y169409D02*
X111191D01*
X112461D01*
Y163061D01*
X111191Y161791D01*
X109922D01*
X108652Y163061D01*
X120078Y161791D02*
Y169409D01*
X116270Y165600D01*
X121348D01*
X116462Y501401D02*
X119001D01*
X117731D01*
Y495053D01*
X119001Y493784D01*
X120270D01*
X121540Y495053D01*
X113923Y500132D02*
X112653Y501401D01*
X110114D01*
X108844Y500132D01*
Y498862D01*
X110114Y497593D01*
X111383D01*
X110114D01*
X108844Y496323D01*
Y495053D01*
X110114Y493784D01*
X112653D01*
X113923Y495053D01*
X73770Y497309D02*
X76309D01*
X75039D01*
Y490961D01*
X76309Y489691D01*
X77578D01*
X78848Y490961D01*
X66152Y489691D02*
X71230D01*
X66152Y494770D01*
Y496039D01*
X67422Y497309D01*
X69961D01*
X71230Y496039D01*
X72500Y169409D02*
X75039D01*
X73770D01*
Y163061D01*
X75039Y161791D01*
X76309D01*
X77578Y163061D01*
X69961Y161791D02*
X67422D01*
X68691D01*
Y169409D01*
X69961Y168139D01*
M02*
