G04*
G04 #@! TF.GenerationSoftware,Altium Limited,Altium Designer,24.5.2 (23)*
G04*
G04 Layer_Color=16711935*
%FSLAX44Y44*%
%MOMM*%
G71*
G04*
G04 #@! TF.SameCoordinates,FF7F0701-0BDD-48FF-8A56-710F3804CBA9*
G04*
G04*
G04 #@! TF.FilePolarity,Negative*
G04*
G01*
G75*
%ADD10R,1.4232X1.4232*%
%ADD11C,1.4232*%
%ADD12C,1.4732*%
D10*
X80000Y313500D02*
D03*
X110000Y473500D02*
D03*
Y313500D02*
D03*
X80000Y473500D02*
D03*
X500000Y313500D02*
D03*
Y473500D02*
D03*
D11*
X80000Y288100D02*
D03*
Y262700D02*
D03*
Y237300D02*
D03*
Y211900D02*
D03*
Y186500D02*
D03*
X110000Y448100D02*
D03*
Y422700D02*
D03*
Y397300D02*
D03*
Y371900D02*
D03*
Y346500D02*
D03*
Y288100D02*
D03*
Y262700D02*
D03*
Y237300D02*
D03*
Y211900D02*
D03*
Y186500D02*
D03*
X80000Y448100D02*
D03*
Y422700D02*
D03*
Y397300D02*
D03*
Y371900D02*
D03*
Y346500D02*
D03*
X500000Y186500D02*
D03*
Y211900D02*
D03*
Y237300D02*
D03*
Y262700D02*
D03*
Y288100D02*
D03*
Y346500D02*
D03*
Y371900D02*
D03*
Y397300D02*
D03*
Y422700D02*
D03*
Y448100D02*
D03*
D12*
X342500Y372500D02*
D03*
M02*
