M48
;Layer_Color=9474304
;FILE_FORMAT=4:4
METRIC,LZ
;TYPE=PLATED
T01F00S00C0.7112
T02F00S00C0.8100
%
T01
X003425Y003725
T02
X005Y001865
Y002119
Y002373
Y002627
Y002881
Y003135
Y003465
X0011
X0008
Y003135
Y002881
Y002627
Y002373
Y002119
Y001865
X0011
Y002119
Y002373
Y002627
Y002881
Y003135
Y003719
Y003973
Y004227
Y004481
Y004735
X0008
Y004481
Y004227
Y003973
Y003719
X005
Y003973
Y004227
Y004481
Y004735
M30
